<?xml version="1.0" standalone="no"?>
<!DOCTYPE svg PUBLIC "-//W3C//DTD SVG 20010904//EN"
 "http://www.w3.org/TR/2001/REC-SVG-20010904/DTD/svg10.dtd">
<svg version="1.0" xmlns="http://www.w3.org/2000/svg"
 width="92.000000pt" height="92.000000pt" viewBox="0 0 92.000000 92.000000"
 preserveAspectRatio="xMidYMid meet">

<g transform="translate(0.000000,92.000000) scale(0.100000,-0.100000)"
fill="#000000" stroke="none">
<path d="M62 905 c-60 -26 -62 -42 -62 -445 0 -406 2 -419 64 -445 52 -22 740
-22 792 0 62 26 64 39 64 445 0 406 -2 419 -64 445 -51 22 -745 21 -794 0z
m206 -138 c15 -14 22 -32 22 -56 0 -97 -130 -112 -163 -19 -11 31 13 79 47 94
36 15 62 10 94 -19z m455 -205 c17 -9 39 -35 51 -57 19 -36 21 -57 21 -210 l0
-170 -70 0 -70 0 -2 130 c-3 156 -6 170 -38 191 -20 13 -30 14 -58 5 -49 -17
-57 -43 -57 -197 l0 -135 -67 3 -68 3 -3 223 -2 222 70 0 c65 0 70 -2 70 -22
0 -20 1 -20 18 -5 53 48 142 57 205 19z m-443 -217 l0 -225 -70 0 -70 0 0 225
0 225 70 0 70 0 0 -225z"/>
</g>
</svg>
